<mxfile host="Electron" modified="2024-05-15T05:00:28.434Z" agent="Mozilla/5.0 (Windows NT 10.0; Win64; x64) AppleWebKit/537.36 (KHTML, like Gecko) draw.io/24.2.5 Chrome/120.0.6099.109 Electron/28.1.0 Safari/537.36" etag="vAKGn05LZx-MON6PSmh7" version="24.2.5" type="device">
  <diagram name="第1頁" id="yjY9xi0w2jYvSDXM2f4n">
    <mxGraphModel dx="989" dy="582" grid="0" gridSize="10" guides="1" tooltips="1" connect="1" arrows="1" fold="1" page="1" pageScale="1" pageWidth="827" pageHeight="1169" math="0" shadow="0">
      <root>
        <mxCell id="0" />
        <mxCell id="1" parent="0" />
        <mxCell id="uKUR6yxW0xjmC9NnJQb5-7" style="edgeStyle=orthogonalEdgeStyle;rounded=0;orthogonalLoop=1;jettySize=auto;html=1;" edge="1" parent="1" source="uKUR6yxW0xjmC9NnJQb5-1" target="uKUR6yxW0xjmC9NnJQb5-3">
          <mxGeometry relative="1" as="geometry" />
        </mxCell>
        <mxCell id="uKUR6yxW0xjmC9NnJQb5-10" style="edgeStyle=orthogonalEdgeStyle;rounded=0;orthogonalLoop=1;jettySize=auto;html=1;" edge="1" parent="1" source="uKUR6yxW0xjmC9NnJQb5-1" target="uKUR6yxW0xjmC9NnJQb5-5">
          <mxGeometry relative="1" as="geometry" />
        </mxCell>
        <mxCell id="uKUR6yxW0xjmC9NnJQb5-1" value="題目: 給一個Binary &lt;font color=&quot;#ff3333&quot;&gt;&lt;b&gt;Search&lt;/b&gt; &lt;/font&gt;Tree的root,回傳這個tree兩個node的最小values" style="rounded=1;whiteSpace=wrap;html=1;" vertex="1" parent="1">
          <mxGeometry x="65" y="29" width="698" height="60" as="geometry" />
        </mxCell>
        <mxCell id="uKUR6yxW0xjmC9NnJQb5-8" value="" style="edgeStyle=orthogonalEdgeStyle;rounded=0;orthogonalLoop=1;jettySize=auto;html=1;" edge="1" parent="1" source="uKUR6yxW0xjmC9NnJQb5-3" target="uKUR6yxW0xjmC9NnJQb5-6">
          <mxGeometry relative="1" as="geometry">
            <Array as="points">
              <mxPoint x="211" y="245" />
              <mxPoint x="211" y="245" />
            </Array>
          </mxGeometry>
        </mxCell>
        <mxCell id="uKUR6yxW0xjmC9NnJQb5-3" value="把所以node的val存成一個array後sorted，把問題變成找array中element最小值。" style="rounded=1;whiteSpace=wrap;html=1;" vertex="1" parent="1">
          <mxGeometry x="98" y="149" width="227" height="60" as="geometry" />
        </mxCell>
        <mxCell id="uKUR6yxW0xjmC9NnJQb5-11" value="" style="edgeStyle=orthogonalEdgeStyle;rounded=0;orthogonalLoop=1;jettySize=auto;html=1;" edge="1" parent="1" source="uKUR6yxW0xjmC9NnJQb5-5" target="uKUR6yxW0xjmC9NnJQb5-9">
          <mxGeometry relative="1" as="geometry" />
        </mxCell>
        <mxCell id="uKUR6yxW0xjmC9NnJQb5-5" value="Binary&amp;nbsp;&lt;font color=&quot;#ff3333&quot;&gt;&lt;b&gt;Search&lt;/b&gt;&amp;nbsp;&lt;/font&gt;Tree 結構: 由小到大排列，左中右" style="rounded=1;whiteSpace=wrap;html=1;" vertex="1" parent="1">
          <mxGeometry x="450" y="149" width="274" height="60" as="geometry" />
        </mxCell>
        <mxCell id="uKUR6yxW0xjmC9NnJQb5-6" value="Search Tree 有特殊的結構，不用這樣做" style="rounded=1;whiteSpace=wrap;html=1;" vertex="1" parent="1">
          <mxGeometry x="156" y="237" width="120" height="60" as="geometry" />
        </mxCell>
        <mxCell id="uKUR6yxW0xjmC9NnJQb5-13" value="" style="edgeStyle=orthogonalEdgeStyle;rounded=0;orthogonalLoop=1;jettySize=auto;html=1;" edge="1" parent="1" source="uKUR6yxW0xjmC9NnJQb5-9" target="uKUR6yxW0xjmC9NnJQb5-12">
          <mxGeometry relative="1" as="geometry" />
        </mxCell>
        <mxCell id="uKUR6yxW0xjmC9NnJQb5-9" value="InOrder: 左中右" style="rounded=1;whiteSpace=wrap;html=1;" vertex="1" parent="1">
          <mxGeometry x="527" y="247" width="120" height="60" as="geometry" />
        </mxCell>
        <mxCell id="uKUR6yxW0xjmC9NnJQb5-28" value="" style="edgeStyle=orthogonalEdgeStyle;rounded=0;orthogonalLoop=1;jettySize=auto;html=1;" edge="1" parent="1" source="uKUR6yxW0xjmC9NnJQb5-12" target="uKUR6yxW0xjmC9NnJQb5-24">
          <mxGeometry relative="1" as="geometry" />
        </mxCell>
        <mxCell id="uKUR6yxW0xjmC9NnJQb5-12" value="按照這個InOrder search 會由小到大順序出現node 的val&lt;div style=&quot;&quot;&gt;Obersevation:有sorted的東西，相鄰的數值相減，一定是最小的distance&lt;br&gt;&lt;/div&gt;" style="whiteSpace=wrap;html=1;rounded=1;align=left;" vertex="1" parent="1">
          <mxGeometry x="383" y="354" width="408" height="60" as="geometry" />
        </mxCell>
        <mxCell id="uKUR6yxW0xjmC9NnJQb5-22" value="" style="group" vertex="1" connectable="0" parent="1">
          <mxGeometry x="117" y="703" width="201.60000000000002" height="186" as="geometry" />
        </mxCell>
        <mxCell id="uKUR6yxW0xjmC9NnJQb5-16" value="" style="shape=image;verticalLabelPosition=bottom;labelBackgroundColor=default;verticalAlign=top;aspect=fixed;imageAspect=0;image=data:image/png,iVBORw0KGgoAAAANSUhEUgAAAYUAAAEtCAYAAADnbHzLAAAAAXNSR0IArs4c6QAAAARnQU1BAACxjwv8YQUAAAAJcEhZcwAADsMAAA7DAcdvqGQAADz4SURBVHhe7Z0LfFXVmfYfIBBuCQQIEghyCQQJCHJTAlWwTgMdRWmpndaJjDNo+ymlv0Gdr9RxBJwpxfmqzK+MOlr52mpq2w/p0KKtptpCpxBULpVLkECQSyBgCIEk3ALBbz/r7LWzz+EkObnBOeH589ucvddee+91dvZ5n/W+71rntPnMAU3kwoULZhFCCBHbtHVfG83FixclCEII0UpokihcunQJVVVV7pYQQohYp0miQC9BCCFE66HRokAvQaIghBCti0aLQnV1tbsmhBCitdAkT0EIIUTrQqIghBDCo9Gi0AzTG4QQQkQZjRYFIYQQrQ+JghBCCA+JghBCCA+JghBCCA+JghBCCA+JghBCCA+JghBCCA+JghBCCA+JghBCCA+JghBCCA+JghBCCA+JghBCCI9G/3D/mTNn3LUrR1FREX71q1+Zheupqamm/JZbbsGXv/xl8yqEEKLxxIQoUAAWLFiAjRs3mm0rBny1ZYTbOTk53n4hhBANI+rDR++//z6mTp1qjP/EiRPxs5/9DGvXrjULBWDv3r1mnfsoHtnZ2eaY1kchcr45CePuXoy15W6REEI0M1EtCjTyf/u3f2vWv/3tbxsRsCGiVatW4Yc//KFZtx4C6/CY73znO+a1fnKxeOhQDA1Zxt3+Vcx9dg0Kz7vVhBDiGiGqw0fs9dNDoHcQmi+g90DoJfihWFAU6DlQKOqGojAXOTdlIXtUb7fsPD7duha520uQOPwR/Od/z0dmO3fXFaB8/Qos+vFKdPvq21iY5RYKIcQVImo9BYaAbMioIQnkWbNmmWN4bMRhpIx7sPBfFrrLEjz/qz/i149lArtewP/9WSQeR/NRsmsd1qwrdLeEEOLKErWiwBFGZOnSpea1Idhj7DkaTjwyHsrGNGdtbWF+oEgIIa4BotpTII0ZSWSPaVLCuR2lIRQ3B7Ew1932E25fIVbc75TdvwKF1UXIfXYu7pkUyFtMmvYQFv/O54UUrMBsp3z6M3lmM2duoN7QoYudMxP3XN428Z3/fD5WPjkbt9/MOpNwzz/lIN/kRMqx9dUnMPv2ceZ8426fHXxdPyV5yHnyIUx328jcyqOv5KGk2t0vhGj1RK0oMFHMMFB91JZQjuTYOin6FDxzapeEwHaTKMfap+fi+YLeuPux57DkO/diSMVa5Hz7QSxd71bpMxX/sOw5LPybDLM59X89h+ec7eeW3Y1ASV0UIeebc7EGU/DIUwvxyOeTUbR6Me5/ciXyXvkWHvxZCcY8tAjPLX4EYzs4ht9/XUuZI2rZs7Fs/XmM/YclznUXYs74jtj4zGzc/3Su8w6EENcCUT36qC44WY2CwGS0HYXkh/siG4EUhuoS5P4oB2uTMpE9M9MtbAIbX8BKzMVrLzmGdtYM3PvgErz6wiMY4/T0V65eEzC4iWmYetcMZA7sZg5JvXEGZjjbM+4ag3p9pY05KJz4PF79tzm4965szH/pNSyamYjy1Y6H8HIvLPrFjzD/Pudc983Hj55xr5vr92gcUXnyu8jpPR+vvf0qljx4r3PdbDzyf17FK49lovD17+OFUBERQrRKolYU2NOvy6hz+Okzzzxj1ikKHHHkh8dGHHrK/zUW/+tid3kUs/9qOub+vrdjFP8Tc9LdOk1iBuY+loVEd8tw01RkDnd8iKJDxiNpGo7Q3Of3JxIxZfIUs5Zx3/2YkWRWA9jr7jvkSIPL9t/gN45GZN//CDJCYmYZM7OQ5bRwy3blVoS4FohaUejXr58x7HXlBTjSyM5P4FBUKyL2mIhHLf0lFzmv5rjLGhwaMAevvvsq5k8JMuONZ/wQpF12qkQk0inYVNJ0UQhz/sTOAY9jxLAx5rUG97o+SrbvxFbHX6nJY/iWWwM5jK3FTZcuIUT0E7WiwPAQWb58uXmtDXoDFAXObLaegT3GnqNe7nsee/bswZ6Pd+DtpfciMX8ZvvXICuQ3V4I1Lj5M0roZqeP88RHMsSg/U+H8n4F7/8XmMcIsM+rPbAghYp+oFQX28u18A3oBkcK6jZnfYGgXj7RZS/Dcw5nA+hew9MfXRsgkIBxFiE+1eYwwy/iGjwITQsQeUZ1o5nwD9v7Z8w+XTA7FzmYm8+bNM6+NIe3vF+KRyUDey0uxYpdbaEhA/ADn5UCYPECBL0bfBCLp2Tc3qekZSEU5tmzb6pYIIa5VoloUKAj2qyooCvxqi3A5BuYSOAqJgsBjwn0tRsNIw5zvzEFmWR5eeGaFz9iPwAiG6Nevw2+CxKIcua/mIDDDoGmk9kszr6fOXMFBoBOnYNpgIP/1ZSEi6MCRWD9e2QzJcCFELBDVokCsMNjRSPyCPIoDFwrBkCFDvG9RtXWbJgguwx/B/LljUL7+BSz+sZWFREz5YrYjGXlYNmc2nnhlJdasWoEn7p+O59pNRbN8VVFGGqY6L2te/C5eWLUGOf/6AoK/3akFaJeJRx7LRobzvpb+3T146F9XYOWbzrWfd0di/aEc+m5AIa4Nol4UiDX2/PI7jjjiNgXCCgETzfYrtbndXIyZNx9zBpcj78XnkON2lRM/vxCv/DAbUxP2YuUzT+DRZ1eiJH0RXnkqE/Yr9ZpEajYWOufPrNqIZQsexQtbw82sbn4Ssxbi//3iOWSPAvauWYon5j+KZW8UIn7yfLz63BxHCIUQ1wIx9ctrQgghWpaY8BSEEEJcGSQKQgghPCQKQgghPCQKQgghPCQKQgghPCQKQgghPCQKQgghPCQKQgghPCQKQgghPCQKQgghPCQKQgghPCQKQgghPCQKQgghPCQKQgghPCQKQgghPCQKQgghPCQKQgghPCQKQgghPCQKQgghPCQKQgghPCQKQgghPCQKQgghPCQKQgghPCQKQgghPCQKQgghPCQKQgghPCQKQgghPCQKQgghPCQKQgghPCQKQgghPNp85uCuN4gzZ864ay3M+RJsfXMlXvvdO8jPz0dhCQsTkTp8BDKm3ItHH56BtM6mZhhysXjoXOS4W7WR/fweLMxyN4QQ4hom6j2F3CWT8NUFy7BmnRUEUo6iXXnI/a9HMf2vHsKKXW5xKNWOprirQggh6ifqPYXchUMx9/cZyPp8JsaOGYHe+BQ7N67DO+vyUFTmVho8B6/+dgEy27nbloIVmH3nUuRx/aYsZI/qbYpDyZi5EPfe6G4IIcQ1TNSLQn7uGsRPmYG0eLfAsusFzL57WcDgIxVzfvJHLJhsNmrwicKYx36N//e/MgLlQgghwhL14aOMrDCCQIZn496Z7jqKcP60u+qnqAg73dWOceFOIoQQwk8Mjz5KRLxn51MR38Vd9XOR2YcACZ0T3TUhhBC1Ef2jj2qjbA0enfYo1jCvMGAOfvTOAkwNySmUr34U4/5pjVlvlhFGW3Pw1H8XIP1LT2Nm3Ft47Xfvo7jSKe+QhFH3PISv3NgVOL4Fb6x6F9sOcwfQdcBkzPybaUh3dvkp2f4WVv/+Ixw6ec5sx3VORvoXs/G10UlmWwghrgax5ymcKUF+7gt49O8WBQQBacj+349cJgik5Phxdw3ImTsUQ4cGlknT7sFDT65A7r7GjU06m5+DH761D8nj78S0SelIuliGbStfwK+3b0HOy6uxr+NoTLtrGiandUXlgfXIeXUdbE6cFOcux/KV76Okw2BMzroTd069BSkdSlBcHBAIIYS4WsSEp1D4ymxMfyaQUq4hEamT78ajTy3AjMHh8wXhj/OThqzFz+H5+yJMQLueAhxjPvMfH8BY2/sv/DX+/aebQd+g6/gH8L/vHhwod0rWr/h3vHMgCZMfno9pKSzbh18v/Qk2d7gFDz96J0yR4SIqyy+ia2JHd1sIIa48sZtTSE5GYtwpHNpaiJJqtyyE8wmOFzE7G9kPLcCSZQsx31mfMSUNye5+x5ojd+GjWLre3YyQjqNuqxEEknYjhpkJdP2dnr8VBNIV44b3d17LUHI0UOJRdRYVl9x1Q5wEQQhx1Wm3yMFdbxAXLlxw11qeuK5JuGHC7Zg2fSIyruuP5O6nUZZfiAMHCrDx3V/gN/ldkPnXY5EcInHJI6di6hRnmTwWI9JHYYKzPu3ubMy5ZxD2//kdFJiYThm2numBr985CuFy1UEc3YY/flyK6yd8GTf1dcsM53Bg0yYcih+OrFvTkeCWkrjju8wxPYffjlHGLUhCt8od2LTvE2z7y2FUdU5Gau8ExLUx1YUQ4qoSE55CYvpUzLhrhrNk45F/WYjnXnkbGzb8CHPGB0YUlfxhKRb9V75Zj4gBM/DcM49gjLuJ3EJsdVcjIa62u9Y2zl2pm5TpD2PeXRlIOlOA9atexJKnlyHnDwUm/CSEEFeTGA4fTcWCx7JhswFb33mnQYYdN43ACHeVYaRDBe7qFSEOyTd/DfOffArzZk1GemIZCtbm4IcrGyBsQgjRAsSuKJAxPsO+qxzeVyM1mATEX5VpDI44jJ6G7H98GLf0AM7t3IJt7h4hhLgaxLYobN/pzVjG8ERfAjkC1m3BWncVA/ojrY+73uJUotLOqLO0TUJ3JiLiOjoyIYQQV4/oFoWNa7CyoJa5BGVbsew/cmADLqkTx9TkCAx5WPlKXtiRSef3rcSjS1agyN0e86W7kemutzwFWP2Dp/DvL/0C7/z5fbz/wXt460c/xDsHgOTxk71wmBBCXA2iWxTKt+CJOyfh9nvn4onnc7DmzTVYs2oFlv7TbNw+7at4Yb3b5R6cje8+PDWw7lGB/GdmY9Kt92Duk0uxYpUjMK8sxRNz73GOfQJr9rnVnGMfjHSeQrMwCBmjU9C+NB/rc9/CW2+uw0cVCRh11zw8PL1m1oIQQlwNonvyWu5iDJ1b90/kJA6/F4uWL8GMAW6BR/0/sFP7sUIIcW0S3aJQXYL81Svxyu/eQWFhEfKLXM8gOQ0ZGWNx91fnIPuONMSH+YoLfhVe/qocc2zNL7Y5mGMzMG3mXMz5Ym3HCiHEtUnsfiGeEEKIZie2Rx8JIYRoViQKQgghPCQKQgghPCQKQgghPCQKQgghPCQKQgghPCQKQgghPCQKQgghPCQKQgghPCQKQgghPFqVKGwp2+KuCSGEaAwxLQpvHXkrSAi+tWlu0PaKwlfcNSGEEJEQ06Lwl7Kt+N6Of3O3gqFA/PbIb90tIYQQkRDTovAPg+eY11CPoPhssfEY/nnkk26JEEKISIj5r86mAJCUTilGCMYmjQ0qE6JuivHOf7yI9Sec1R6T8fA/ToOemsjY8tpTWI2ZePr+sW5JdBHt7YtWYk4UGBYakzQGc9IedEuaiVp+5S37+T1YmOVuRDsnf4J5H76Eze5mDemYN+Gn+Hp3dzPSeuE4swk/3/4sVpXvxxFns2+HSZg1bBG+3ichsJ9cOoK8j1/CqqNrsaG6yilIwMgu03DfyMcwNTFQxXDWOde27+P18iMobdMXWX2/i8czxqOru5tUFj6GLx8aiOdum4eRze7XuoLQU4bDo/gdLHtxPZK/9DSyg3/0/DKaYnSL316GFzeUuVs1pEdw3UiRKDSOqA8fsdfP8BBfbVhoxb4VLZREzsSCt/Zgz57A8vZ3MpEzdygW57q7mx3+ZGgznv9MqWPmHNr0RHr7vr6lFzq0MTUCRFovlLNr8ezGeVjuCELXLlmY0aUvzldtwPLt38LPS906DnlbZ+Gxw7nY3yYdWd3HO8a8AjtOv4EnNi3E2rNuJUdSVm11znV2JOaN+Tle7p+OgsPz8IN9Fe5+h7O5WL5/N2akt4QgOBRvQ77jIaSPlNGoEwrFU8vwTsABb0bSMfPpp/G0Xb7kPAP//RSWvd3AC7VY+65Nol4UrAjQQyCrPvcr81qbMLDe93YGJ59Zb9b/fDloZFIkpD24EAsmAjnrW0wVmpcL5ab3jm6P4ydTV/mWZzGrm6kRINJ6IWze/QOsqgZGXvcj/GTSYnx30io82zfd2VOAH+9dg8pANZyPG495I9/EG7f/CIsmLMfLt/8U3+zo7KjORe4hVz1O5WLtaWDWoMXI6jUQI4d9EzOcOrmlNf7L5t0/xPbuj+Pv+7oFouVJmYb5joFurt56gxiTjZlDgbKPtwU6LeKqEPWiwByByROcK65XGOwQ1dChqqzH47eeuDbmMYzrMtBdq5tI6wXYgA2lNOjjMS1tZKDIIX3IV8DoWmX5Bmy6FCibeuNyfD2lZ2CDtE3HlJ4UD6DiousJmKBlOvp6IjQQKRQOy6fL8VLpjfhGxtSgcJJo3Ywd6TwnJ0okCleRqBYFEzJyjPk/j3gyYmEIxSadG0chijYCmf3T3O0achcOxdChNcvlIaBAaMhfZ+jCmkqB4+eCWQyGqIL3F2LF/W6Zu8x+pdDdVzv7T+931+om0npBnCxAAY1+XDqGdQkUGeKHYVAHrhxBcbkpCftUlVa5f4eg8FQxjjveQoD9zt8X6MpjLxXgp7tfR9+BT2Bqp8DehsFcwVN46inf8lpwh4Dx5qdeXA9GtRmyYJ2crYF9oTD+/dRTObisS7E1xykPCVuYMt91LztuC3Ii2M+2mDayjtf20GNrb3PYttn78h/vBBtdU9dthwnF2PO69c19KsP6FwPXvCy84x5j29Tg8E8tmPcf2lZD4D4se3t7M7av/mfG/7cJPBO2busKXUW1KPxfx+BzHsJvnZ5/fcLAkNHvwsxL4LGNJXehY7QnLsDCB/2iEDDYc/ctwNtu7mHP89mX5R4KX3HM/fM1+Yk9by1A5utzPeOetZjlzyPbWWcy29RZzD43zz8dSwc/H3Ts5bJUO5sPfx2Tfp+JSe/ehcc/fB2baxkTEGk9Q+UR7OZrXEJIz70DOpinqABHTpmCyyn9CX5SQg9hJKamut5J96mY1LECaz5Zjs2nSlGw9yWsOdcTM1KmYv/u7+GNdo/jG2m+5HWkGAPgJo+9ePVMpO9ZHWRgxt7vlD88GUnOOpObrNfkkAmN63+XYPLD9rpPm3CIh2nbapRMeti3vwCrwwhOybplyB/pnsckSmmQgo9lDL5WxmQ4flgZ8j/yW6tilHCU1Yl8bPMVb9lRAAzNwOWZlRRM+0fnOuY+JXnva/503/gs3tdfAl/ztalsw4u1i1U9mLb0SDYjwAJeQ3BbSfHb65ynzfE+p9/YPO2L8JmxsBPxC3zNqztzKAUpTKchRolqUbgpaYwRAU5CCycMFA1LaMjIsrWsIU9nHpbeWdM7n/t6Jhb8y5xgg5ybg6UbQ8qzFuL5+5we/2srHJMeIO3BV4NHLaXPQbZTJ+9QfT3+gHeSPdl3sHNssDCFp9LpyU9KnIFZPbMwtWNP9P2sFBtOLse8jUuQd96t5BBpvSCqz3s5gwZRvgaLPgqMdBrX758wy7PzA/H1cd/HV7AG3/3gLnzrwBGMG/oy5iWswsuHgfsyZqBy92N44F1HtBzh+sqfn0Wel6SunS3vOr3GoaEjTsYim4bjxHq810hjFQnFx0ocg5aBUT6bNPb+bM/Ymrb1mIyv+YzW2Psd4+OYuHUhvdeynlOCRaq4BCWO4csY7Tv5mOw6hGwsMkLj81vzUdAjHek9ylBy1C1zTFn+HucRa3SyPR0z/cN4x9yByT0cw7mj4SaSve/Vexzj/jfu+cy5HIP7rv9cxdj2sePfhRWxcNTfvgY/M05dv/CM/SuKUgHyW/DZupJEtSjc2fdOzBk8p1ZhoBA0L8Gjj/a8NQXrKBL+sM96xwO4LxtzQjppaf0zgY1FnigECA4DzX3dKdp3KKROKGlIZXJ77myscDpNDWHkyJ/iB7c8gcfGLsaSW9/EG5MXY1Y7Z0f1Gqw5UDM8KNJ6DYbn8FF59CU8/sES5DI5nfwsvp8RctM6T8U3PpeL3C/kIfeOn+KxgQnI3fkDVKT8M2ac+h6eOLgbAwf+FGvGPI6RVW9g4V9Woe7W1WHgUkYho5HGKlJSrkt2erbr8eJlYQfitm1K6DyIFCQ77SorCRaFpOTgWkhJRrIJkUTeIw2Nz7MXnnTDHcjo6bsPrtgk9wlsNpjLjLPzfphOKo0kL0AvqSZc8+KGZMx8ej6meW89BaNucHy5Pfk179mMGHOE468iFLF629fwZ+ayuuZv43h3x+p/x7FAVIsCjT7nI4QKwxWblOb00F99Pht4Pcc10IU4tM95eX2uZ+jtMv2ZPFbwCOQMpmPdlLc9kaE3UT9pmPMa69Z4LZHkE8LSOQuz+gQM8dpT281rWCKp17UvTHr50nlw5kENVagyCeZ09PXFlUr3L8Q3tv8EGz7riakDfoqXb5pUb8K4cv8SvHzuPnxzeDo2HcvFkS5/j3lD0tGz1yzMSx2PysoN2FybJ0OMgbuKOD13E8pg2MEYOp8Bd9tm8xc1iztxLoTk60Kfcafn+vTDTi+3xpDWG6IxISTbg6XxC3gaRixcQ1v8Ub7jvQR7N1eOkCGpT9d4VZaU0RlBvfBmb+/VfmaikKgVBQoC8wQcSuoXBuYPmt9DqIOBqY7/YElD/8HOy32+eH/QstCMxOFEOBN6cryOVyMI+4QjkHNwFkeU8p6ZHuStNISqzwImvG97kw2ulXrrJQ3DML5WFWC/3zCf341PeGjbUUi3k96OPIt5e3Kx3/nQP3Djz7EkPcRDCMelDfjxvu3IHPIARrbdj2Jeo31P2DFMPeOdLhuOo7SuEJLbY2tujAcQKe6Qzqc9A+4mId222fzFZUtEE6zcGL9T/+FJjqmsd0x/wAsxPV0TOnKNqRELxxgWB0IxSTeMcmpGKc79nDLU9tZboL0t9MzEMlErCgwRpXRMMUJghYFlkWLr+vMMfRrjYewvgt8HMGGi1/PQcBOdizyGjxpK1kIzia7+sFMFjpwKCa6cycWaY4GRRiMTbzSvkdcLoe043GhmI2/Amr01ca2CvW+YezGwZybGmZIjWPXJG44gJGDG0P/EN/wznetgx47lWNf12/hmKus7YtDeeamu8PIYpefZnR6IFP+M6MvwGcFQmjxRjUbUXXUxSdFaoQFnvsDG7+toWyNImT4/MKY/tFFBuOGX0hK8Y0JH1piyLUxCb0PJiZA8RRTieTZb33O8KiaYm7O9LfnMxCZRKwoMEf3n+OeDhCHSyWfMRZDQ+rY8YgpWYDa/+sKXQ0h7MBvZyMHc+2uSygbHO/BGHxnvIg/r/lRTw4xkctdrcPMHQZPjcrE4yCsoxNp1jiwN7l+T2A5LKdZtuwsz/vAQFm1Zgu9v+Dq+sn6hmWw2sPv38fhga5wjrHd+LZ79I0cmPYRVJ1mQgKxh3zSGf/ORh/DAhoXOsbPw2BHHMLbLwjeGTWIl4HSeO4qpAps/eQAPrJ0VvGx8PTBxzk/pS3jpWF9848YsN8SUgEnJk9C14iX8wBGg0uOrsLxoEwYmT8PUOp9YxxD/jRu+CYrrb0EOhy0Ondm4EUbuSJ71v/SNRNmag9V73HWX4rdzQoanOr1zL17vtG0Kjdvqy3r3W16LIE9Q/A5ygo4LxMIvyz2EYMIvJ/KRX+o3/gGxKPs4HyWRhGLcfEbwSKYriBsGW7euJHyCuUnta6FnJoaJ6pxCqDBESp+OgayZf45CZIIQPPpo6J1LkcbhomaoqCULC/e8jQVYium2HpfXUpFtq7m5CBP2cffnTQ6XU0jDnPuZs3BzFFYMgnIW7vDUoDaEIwEDu45Ez892ILd0DdZwLkLcSMy4fjmWj/NPAIu0Xhi6P4Bnb16MWZ0TUHra8S5OVzg9929i+cTFNfMJLlQ4chDgyMUjKLgQulSF5CT24+e7XkfCgMeQ5ZuT0DVtEZ7rMwgF+/8OM7a+hCNdHseiUa7w1IUJ37jDCb24vTuUM6IQTThqRqK8aM+5IyPMkNASb6y8WczwVF/i1M05YMOLNXWcZV3yHZcbujCUBB0XeE9Bwy/DYZKlHMUfbPwDYuGU9wwM/6ybsbhjkiMi7vWbax5C5LjXd9obvtfexPa1yDMTu8TEF+LRuHMIaiTCwLARhYTwGHoLFBV+jXZDwk9CiOjBfIHexxn6FtsrQFR7Cha/x1AX3G8FgbOcbfhIgiBELLMF722I8oR4KyImRIFYYeAopFAoBixfdWtghjPFgMNXWcZjJAhCxC41M5glCVeCmP2RHfu9SCTU6FMUJARCxDY1v7nA+QyXz2EQLUPM//KaEEKI5iNmwkdCCCFaHomCEEIID4mCEEIID4mCEEIID4mCEEIID4mCEEIID4mCEEIIj0aLQps2Qb/ALoQQohXQaFFo21ZOhhBCtDYkCkIIITwabdnbtQv5lXYhhBAxT5M8hbi4OHdLCCFEa6BJMSCJghBCtC6aJAr0Fjp06OBuCSGEiHWanC2mt9C+fXt3SwghRCzTZFEgFAV5DEIIEfs0+kd2wnHp0iVcvHjRLEIIIWKPZhUFC8WhurravHJpgUsIIYRoAVpEFIQQQsQmzZJTEEII0TqQKAghhPCQKAghhPCQKAghhPCQKAghhPCQKAghhPCQKAghhPCQKAghhPCQKAghhPCQKAghhPCQKAghhPCQKAghhPCQKAghhPCQKAghhPCQKAghhPCQKAghhPCQKAghhPCQKAghhPCQKAghhPCQKAghhPCQKAghhPCQKAghhPCQKAghhPCQKAghhPCQKAghhPCQKAghhPCQKAghhPCQKAghhPCQKAghhPCQKAghhPCQKAghhPCQKAghhPCQKAghhPCQKAghhPCQKAghhPCQKAghhPCQKAghhPCQKAghhPCQKAghhPCQKAghhPCQKAghhPCIKVFYvXo1jh07ZtZ///vfm4WwjPsqKyvNthBCiMYRM6JAw0+jb0Xh9OnTZiF2n90WQgjRONp85uCuRy379u3Dtm3bjOHv2rUrunTpYoTArlMMuO+6665DWloaBg8e7B4phBCiIUS9KFAQNmzYYASgPmz46Atf+IIRiPo4c+YM/vSnP+H48eOYMGEChg0b5u6pHbbnww8/RLdu3XDbbbehc+fO7h4hhIh9olYUbDiIHgK9guzsbHdP7fAY5hYoCKNGjTJeRF1i4heFfv36YfLkyejQoYO793Kqqqqwfv16HD58GL169ZIoCCFaHVGbU3j33XdNItmGiSw0/Oyt+xebZ7D1uM1jeY5IoIicPHkSn376qVsSHu4vLy83XoIQQrRGolYU2NPn4hcECgA9AYaT/IsVDwuP4bGZmZluSd3Ex8ebY4qKinDp0iW3NBiWc39iYiJ69OjhlgohROui3SIHdz2qSEpKMj34Q4cO4cKFC7jhhhtQVlZmtq1gMKlMY05B6NOnjzmG4Sa+Tpo0KUhQwsHzHjhwAAkJCeaYgwcPomfPnmGPo5ewa9cuk8TmcWfPnsWAAQPQvn17twZw8eJF7NmzBx988AHef/99s07Ponv37kFhqfz8fCNmFJcjR44gLy/PHMP3QdGxiXSWcdm9ezfOnz9vQlbt2rVzz1LD0aNHsWnTJmzevBlbtmzBJ598YkJjvK6/fSx77733cOLECfN+mRthO/heeJ2KigoTRguFYpibm2uuzTYIIVovUesp0FD65yX4oVjYJZwBZy6Cx/IckUJjGBcXZ/IF4WB5x44djVGkEQ2FnsRf/vIX7Nixw9RhfoKiRTGh4aXBDWXv3r1G5Ch4GRkZJjRGQ02PiAaeRp0J8OTkZOzcudOc2w+vybJ169YZ0RgxYoQRw969e5tz/8///E/Y6/K4jz76yFyHAtepUyfTZopFuGG9fA8UqpSUFLdECNFaiVpRoBFqLHYUkn2NBBpgGl+KEHv3frhtvRF6FeGgEWav/3Of+xxuvvlmDBo0CDfddBMmTpxoRIRegx8aaxpk1h8yZAjGjh2L0aNHm3IKA4WCZfRMeL6+ffuaNviNNj0EehEUH4644jGsz7AZF9almISGxOhxsezuu+82CfyRI0caITl16hRKS0vdWgF4DooCPSh6MUKI1k1U5xRmzpxpvIFQaBxDk8x+eAyPpaGMlLZt2xpDfu7cORQXF7ulARg+YWiI4aI2bdq4pTVwVBI9CYpGaHsZIqJBpbCwnp/+/fsHhZXYW6foUJz8YRzrodAbsF4KjTrDXRz9lJ6ebtrvh8ezZ8/ef6g48r0MHz48yMizLrcpNH4oCBQGipIQovUTtaJAY8/8gL9nbL0Hltskc2FhoSnzexY8hnUoGg2BxpvGlz1+a8AZh6fBp6GmNxEOXo9LQUEBcnJygpZf/OIX2L9/vxEbGmMLjX+o18HwFY073wuT3364zw8Fgl4FzxFuWCzPw/ay/aGiQOMfem2G4Zhn8IeQKDz8O1DY6EkIIVo/USsKHFFEw+43aOyFs/fPuLl/CZ2sxmN4LJeGQMObmppqDKP1FmgU2ctneWhv3FJdXW2WoUOHmnBQuIUhmtA5EOG8DlJbuR9OL+E1ec5QwbBQLELFiDCH4E9AE743vkcKAr0DwvvIe0GhrGv+hhCi9RC1omDDP9bYW3HgNuPm/iVcHR7LczQUhoA4D4GhGRpUho7q6ynTiHOhYR04cGDYhQa3NuPdWHhNejShRt9Cb4LCEKlBt3kDCiG9BE7qo/CEG5EkhGidRK0oMJxB487cAo09RxOFhmZCF9YhTLxaoWgo7EUz1k+DyPATe8rMJdRlWGl4eRzDOTTEVwK2h2EmXpMholBo1Jk0ZrvChZfCwboURSaimXRmGI1eQm1hMyFE6yNqRcFCw8cQkTXyViwsXLfDUvnKuvQemgKTrkzucj4BDSoNZV3QmNJ4lpSUeDkOP/Q2aGibE3odFC+by6AI+GEehCEwtr0ho4boEdH7oKfEWd48vrawmRCi9RH1n3Yaehp5egyE6wwNsZwL160IcBhmUwWB0IhSbBg+olGMpKfNYaUMv2zfvt18nxKHqNJYc7IYJ5QxDNPcUBQ4YopCxBzMxx9/bLybjRs3mslobA/nLjQEHsNwGZPjTHY31uMSQsQmMdMFtKOLrJHiq3+dAuEfgdRUGEdn7z/SeDpH8/AL8jg8lF4BDTMFgrOAOc+A52pu2IPnXIZbbrnFXMeOymLIi4ltek0NTRDTA6EQMixFgYg09CSEaB3ExO8piCsLJ8QxdOYP2wkhrg0ULBZBMJ/ABDNDSFyEENcWEgURBAWB4SfmK0LnMgghWj8KHwkzpJXJas574Cs9BH5nk0RBiGsPeQrCQA+BuQQmmfnNrBIEIa5N5CkIIYTwkKcghBDCQ6IghBDCQ6IghBDCQ6IghBDCQ6IghBDCQ6IghBDCQ6IghBDCQ6IghBDCQ6IghBDCQ6IghBDCQ6IghBDCQ6IghBDCQ6IghBDCQ6IghBDCQ6IghBDCQ6IghBDCQ6IghBDCQ6IghBDCQ6IghBDCQ6IghBDCQ6IghBDCQ6IghBDCQ6IghBDCQ6IghBDCQ6IghBDCo81nDu56zPDpp59ix44dqKiowOTJk9GrVy93TzBnzpzBn/70Jxw/ftwtCc9tt92G66+/3t2qn/z8fGzZssXdCk///v0xadIktG/f3mxHcowfvie2q3Pnzm6JEEK0PDHjKVy8eBEHDx7Ee++9h9zcXBw5csTdUzuXLl1CS2jeldDRNm3auGtCCHHliHpP4fz58/jwww+NCFRVVbmlARISEur0FOghrF+/3ngUrFNbvUGDBqFnz57uVv188MEHKCgoQMeOHdG3b1906NDB3VMDe/jp6emIi4sz20VFRTh69KhZr42SkhKUlpaa9VGjRpmlLnhv6DFduHABqampZqmP4uJiHDhwwHgwI0eORHx8vCkvLy/H7t27UV1dbbYtfG/9+vVD7969JVRCXANEvSj4Q0A0ZNdddx1OnTplDH1DRGHMmDEYMWKEu6dpWFGgkNx6663o2rWru6fxnDhxAhs2bMDJkyeNAWboqb7z+kWBIjR8+HAvXBUO1tu1a5e5p7WJAsttyIoCwXtHj4vi15AQmxAiNomJ8BF7qzfccAOysrIwYcIEz5DVx7lz58xCmquXS8PqP2fbts1zC9l7pyAQ9vgbIjS8H2wTxbIuuJ9C0q5dO7fkcpKSkoyHw4UiQ+Hg/acHE+qpCSFaH1EvCuy1fv7zn8f48eONwWqIcWcPl0ac1NWDbijWuaJxbQ6xoZdw+PBhs04voaE9coao+P4YfqrN8WM591NAGpK8Zl0uLZWfEUJEF616SCqT05ZIvYv6oHG0cXf2oG3OoCk0xUsgFITu3bubUE9t3oINufXo0aNOTyEUiio9BN6/5nivQojoplWLgg3zEOYlcnJyzPLmm2+avIA1xA2BgmDDKIcOHcIvf/lLc85Vq1bh3XffRWFhYZAY1Qdj+TYBzRxFJMnicCQnJxuvhd5AOFhOMejWrZvnPdUHQ0379+8375dDbBsiJkKI2KRVi0JtUAyYKObwViZXm4OzZ88a456Xl2cEqLKy0t1TN/QS7IgjJtETExPNekPp0qWL8TAoMkwk++E2yykInTp1ckvDw9FJGzduNMvWrVuNd8H8Ao8VQrR+WrUo2AQ1k6WZmZnIyMgIGkJKQ87RO5HMebDQU2Dcn+e9+eabMXbsWAwZMiTIaPJ8H330Ub0eA4219RJo1Dn0s7HQS0hJSTHtY47CD70Ehr369OnjltQOh9kyxMSFISkex4l3nCMihGj9tFvk4K7HBAx9sHdNg8o4N5OytSVOadgoAjSGXKfR5JwEltFb4DlouJlAZVkkI4l4TZ6H9RnuYdiGIZ+hQ4ea42mQaUgZuuI1OWy2Njh3Ye/evaY+z8ceeUNGM1EAOLubIsdhucwtMHfA98VrM9zDEBANOu8Rr8H3yqG6VtxsnoD16LHwPGlpaea9cZ3eC8WTx9DLaEiSWggRe1yT4SOOYho9erTpnROGepo63JLGnPMg7MghikJdOQsKwbFjx7z4Pr2EpiZyKQI05DTiZWVlpoyvfG8259BQeE62ja+hHogQovVxTYoCYezextfZS2bvuqlQGPxhpLryCtxnjSx79bVNwGsoPBe9GXoQFAPbw29KToAeCAWF3oUQonVzzYqCH/aCuTQ3dfX86SVYUaDn0hyzookNJVHkmDTmK72EpszToDdDz6Yl7pEQIrq4ZkWBBtn25NmzZoK1qTA/YUcSkdryCTSw7MFbaMQbkkuoD5tPYBKbYsDtxkLvgBPr2OamnEcIERu0WlFgTH/fvn1hRwDRcO/cudObx8BEtH+oJsVi7dq1Zu7Bxx9/7JYG4NwEG6/3w+vwe4XsSCYmapmkDQdj/naSGYWDnkJzwmQww2NMKnMEEUUvUvjeOFyXC987h6WyjMLV3O0UQkQfrVYU2LOlYXvrrbfw/vvvm1E+HFq5bt06Mz/BTvLiCJyBAweadQvFhCODaLx5nF8EOG6fX93Nc2zfvt3U3bRpE95++20zDJWhFvbOBwwYUOucAwqC9VJowG3CuzmxISO+NgQKJb0oLkyU04PhiK3Bgwc3qzcjhIhOYu5Hdhgjt9+aWte3pPrr1QZ78vY7lfxs27bNLIQ9bV7D1qnvx3IY0+d8CC61GVH2wCkkhENZb7nlFrMuhBBXm1bb9WOOgOP+OZzS3xO3k8Q+97nP4Y477ggbEmGvmHMPGFLixDR/HZZz4hrj6zZ5a+P2/FbR6dOnm8lydfWqObvY0lwJZiGEaA5i8uc4hRBCtAwKEgshhPCQKAghhPCQKAghhPCQKAghhPCQKAghhPCQKAghhPCQKAghhPCQKAghhPCQKAghhPCQKAghhPBoVaJQci7wzadCCCEaR0yLwoHK/UFC8Kej64K280/mu2tCCCEiIaZFoeTccWw6HvgK6lAoEAcqD7hbQgghIiGmRSGje4Z5DfUIzlw8YzyG8b3GuyVCCCEiIea/OpsCQDrHdTZCkNwxOahMiLqwP6N6+vRp81sb/E2MuLg4d6+oC/tTtfx9kWgk2tsXrcScKDAs1Msx/NZLaC4OHjxofqktlNtuuw3XX3+9uxXdfOb821u+F3vK9+DsxbNo26YtenfqjdE9RqNrXPgf8ym/UI4PSj5AfLt43HrdrW5peKouVRmv7NDpQ6iqPo82zvm7d+iOm3rchB7xNT/qH2m9youV2Hx8E0rPlzptbYdBXQdhZNJItHPWLR+f+hgHKw84bbsNneJqfke7ObCCwB9JkuEIwB+A2r17t/mJ2vp+yrUpRvfAgQMoLi52t2pIS0tr8E/I1oZEoXFEffiIvX4aGL7asNAuZ7slksj8eU/+clp2drZZxo4da4SCgtES8CdD+dvOzXX+j058hG0ntuFc9TljhOPaxuHomWJs/HSjKfNz8dJFbCvbhj8U/wGnqk66pXXz4fEPUFheiDbOvx7xPY3xLjt/AhtL8pxznHJrRVaP1//QEaPTzt80M3kS0hIGY1/FPhRWFJr9hO1i2bBuNzS7IBDef/4mdc+ePd0SEQ4KxebNm4N+MbA5oBiPGTMGEydONAsFobCw0AhGQ2ip9l2rRL0olJz71IjAOsdDIF9M/WvzWpsw0JMITT6z3u+KfmcEpSHw95P79++Po0ePuiXRC3vb7FFTCDKTM3FH3zvw18696tM5xRhXeg8W3offFv0We04V4NJnl9zS+olvG4+bkyfgrv534faU2zGt3zQkdkg0XknRmSK3VmT1TlSdcLyUCtzgGPwUp400/Antu+LY2WNmP9nleAkUt/5d+rsloqVJTEzEhAkTmq233hB4Tf4mOo07vThxdYh6UUju2NvNE5yuVxjsENXQoaqsx+MbKgqxBHvgFy5dQFKHJGNkCXvoA7oOMKEZvnf2zgmFoGO7jhjVYzQGdR1oyiJhbM9xjoGuCaXxHPz7EF7bEkk9tqFdm7Ze3qdD2w6Id+pZKB4nz5dhRPcMEwYT1wb02qqqqlBdXe2WiCtNu0UO7nrUwXDRaceYD3QMF3u7XI6cOWK2hyYOxV6n93vcNfQUDrufDHDqdInrYs7BeoR1uITj1KlTxiNg/qBz54ChOn/+vHFn2YMJ7Tl98MEH+OMf/4ht27aZhT2cbt26uXsDoYn33nsPGzdu9OowVNGvXz+zn8f/+c9/NvXoLvv3X7hwwezjYo9l8rOu3ltZVRmOni0275lCYOH7P3zmsGOEq9G/a39jfLs6PfK0xDT0jO+JY+eOmdBOF6fMf1w42rRp467VsL/iE1Q4PX6eq0+nPqYsknrMJxw6XYReHXsZb4B5iH0VhejQrj16OwKypXQzrnfak9ol1T1D5LCXuXPnTnzyyScoKioyS2VlJXr16uXWCMSbDx06BKbUysrKTJ34+HiTbA6Ffx8+BzRY/iR0SUkJ8vPzTdiRx9qy7du3e9c9duxY0HF8pj766CMTMqxrP0MrbN/evXu9toceW1ebw7XN3pdPP/3UXLNt24DYsi7vB8v4PPJ569DBEWnnONY/cuQILl26ZOrxmjTYfN6PHz9ujmddHsP2+vfXBT9vvFbv3r2D7inLuI/lfO/MO/jbSux94Cuv1xzti+SZ8f9teG7eM9ZjG/33OdaJalFgjJyJU5LRfUSdwkDjZ1+JFQWGTfzC0RBR2Lp1q3m96aab0K5dIPlpDTYfoi9+8YsmJsoHjLkHvlph2LNnjzHwt956K0aNGoW+ffuaDykfXhp37hsyZIh5kMePH2/qWUHYsGEDOnXqZM5vj+UDyQ9HbZytPoti575UfXbBGFrbA99bsRel50rRrm0cBiYMNKLg5+jZoxGLQijFZ4pRUF5gPBH26Ds79zsc4ep1aNfBtJdhL4rCwdMHTVuGJQ4zIna++hzG9BjTYC+BoYcdO3aY+8e/W2pqqrnfhw8fRmlpqWdg+GFnqOTEiRMYPHgwhg0bFta4kroM2MmTJ825aBD4t9y/f78ZwcT4OK9Noed1eBzbxmeA7Rk5cqTZzzK2je1iHRosGm0apOuuu860ywoC3xfX7bHWCIVrN8/F9vC9WgPIZ4sGjK98Tu3xNJY0nH369DHX4X3iMTR0bAPbz/fJhC3flz0fDSPLeR9uvPFG89nhOSlafK3tfpLa7inbwk4Fy/nKa/jbSni/eCzbws9GU9sX6TNj/zY8L++N/TtUVFQY22H/hrFOVPvlyY5xY9iHk9D2V+7H+F4TjFG3oaRwoaNQrCBEAv+4TPzm5OSYhR+gESNGmJ6BhWV80PzlfNjS09NNL4MfOJKRkWHKLfwwp6SkmA97XfD4s2fPmg+ohcfy/HVxXafrkBSfZEb78N78/kiuyRvsr/wkbM+9qdCYszfPkBTFhCPCwlFbPYrTBOfvSdYWrzWJ6RGO8HdxxIyiMNwRj12ndmH1wdVYtX+VeT8VF+pPJLLXyA+sf8QJDQDzQzTQ9ApaChqfjh07ep0KQsGxBo1t437rLZJBgwaZ19C8Fev5PUMaa5KUlGReCff76/ixRs8fn+c6Ozd8bu35+MrhuHV1OOqC5+KzaY0h28fr0pg2FHpk/AwOGDDAnI/n4n3gfbPwvfB98Br2vtZFJO1r6DND0WEbLRQmdvbYrtZAVIsCe/s0DrUJA4WgOeGD4R99NHnyZKxfv96Eeiz88NK401D76dq1qzHmVhQI19etW+eJTEFBwWV1QuFDzB4LvRT2SCKF+YPM3pPQr0uqGfVTXlWBuDZxGN3jJrR3Xtnj5r/m4JDTq19/bD3OOQLE8M6NSTe6e4Kpr143x0P4Qt8szBo4C3dffzcGJwzGzpM7kdLJEc8LlSh0vBx6g5Oc91VVXYVNrrjURl0GjoaaBqYxxipSeA1en2GPUGzbKPb+3iSNNHvpfC788BnwYw0gPVBr0OuD98Efn+d7t4bW3gd7rkgMbDhCjTPfG59hPuNWjGqDdficM8TKhc87PWP2/AnPxXXeN9tOCi/fEw1xJNTXvsY8M6F1eX56EmxbayCqRYFGn/MRQoWhtjBFc0PDz/AQvQM+sHyQ+OGlcbeG3i5btmxxjwpAIfnlL39penJWZOrr7RM+sFOmTDHCY70Whhwigb3vickT8aUBXzKGNqtfFtq3bY+Ln1WbZG9o6KgxMBz34fFNzjkvIr1bOm5JvsUIUiiR1vPD4afnL1VhWLdhJkSY2L6bCScxcT4wYRAqHaFjLqI2+AFnj+1qwb81PUT2dmnkOEzSGjPbNuYmrBHksmnTJmOUQvF7G4SGZ/To0UZArCFleKgurHFlD5bXZ6+XokCjZg0te8E8Z+j1rgR81v1DUseNG3eZOLG9/l54c7f3aj8z0UjUigIFgUNLOZTULwwcSdTcHkJd8OHjQ0hsL57G3Rp6/0Ivg/UZs6SQcJtGojHcfPPN5py33XabERy/t9IQjp45apLM9K44XLUpUJS3l203xn18z/G1egiR1vPDAQWcozAkYYhpZ9Wl80bQbJs7teuEaly6bL6FH9tja24aYoBoiDmkk3kiPjdMcNKg2bYx5m2NoH+JZIIVe7mMjbM+Ow31jem3Xgh7umwDt/le2EauUxhYzm2/9xJNsG304PkebOioOdvbUs9MLBO1d4NDGOkRUAisMNSWJA6HrevPMzBe3VCsu2phmIjJyYa6iqzP4xoK8xKcRFdf2InYJLvlYOVBE5/vGNepwUnkUBi2qUn6Z+D6ruFneUdaL5RdJ3ehq/P3ZjsZ9opzBKHaETM7j4KJdJZz8EBt+I1gKLz/7CmHCxNEAnuTttdvCXcdC40WOw80ODyurrY1Bsa0GdsODTv5YRtoQPnc0KuwxpRt4cK2MLTE3ng0Yz0bhm75WfTn25pKSz4zsUrUigJHz0zpMyVIGCKdZ8BcBAmtb8sjhSEjuur+HAKn/5MPP/wwyEjTO+BCbM+SIxUsHN0QmiOwnoc/ycgHkb1Li/1Asx7r18Xm0s34zcHfYO3RtSbJ/OHxD41RZQgmsX0glBApTOrynvN8n577FKcunHJ685VmCCcN+JuH1gQtTG5zDkKk9fxwdBKvMcL9igvmPzhstex8mUk2cz+HtHJUVUL7BPeoy6HBo7Fk+MZ+xQGhUWYsnj3O2hKzdUFjSuPOXrmNk/NvwgEHfjg80YY5CNcpJuyNsm00ZjwmtHe/b9++ywQnFJ6L57ewPg1laO4hFBp8GlIu1vhbseA5aRDr84RsSKclk/R1wbYSfn7CJZib0r6WemZimageksrwQb/O/Ux8mcIQKX079zWeAkce+ectsLw2OESODwGThDTKXLhOV90fAqJh5kPEoXMcOmrr8sPPeux58EPGhXFfu5+jlfjw0qhwlrTtrdHYMDzEOuyVcCgeBcQey7HTNCYMJ9UHJ7CdrDqJygsVppfN0Ug397q5zrH+tQ1JZfjm4OlDRlR4PM936EyRY+wvmXAUt/0L/1Y8nmGgSOrZ/ALnJ2w+vtm5Rj9c36Xm+mw7h6UWVuxzzncIPZztcT3H1RsC4z2mgHM4IUWahpSiy6GVHALshx989hDZ46axqQ0aDnqInFPA8/KcFD2OIqKR5/V4XRol/zh3Gl0OKbVGjdfgOttlx8xzYZntjdphjxyG6W8T28rhrvY4+578o2DCwWeM7eJzxuSsDZXwlUaWiVQ+c5Zw94Tvn50ThkR5bbaR+20nJ3TQBcv5eaAxtdcLpbYhqeGw1+e95j0P/Vs1tX2RPjO1/W1sOT/zvG6sExNfiMewCHuYkQgDxeA2x8Mg9kd36G3wa7QbEn4SQkQP9K4osvoW25YnJjIs/lBSXXC/FQTOYbDhIwmCELELvRf27ulRSRBanpj66mx6DBySyhFIfigGDEkwsUkoBhy5xDKKgQRBiNiFXgJFgTOIbf5AtBwx+yM7FAjGr0mo0acoSAiEiG0oBswTMI8nQbhyxPwvrwkhhGg+YiKnIIQQ4sogURBCCOEhURBCCOEhURBCCOEhURBCCOEhURBCCOEhURBCCOEhURBCCOEhURBCCOEhURBCCOEhURBCCOEhURBCCOEhURBCCOEhURBCCOEhURBCCOEhURBCCOEC/H/YslxLRlNyywAAAABJRU5ErkJggg==;" vertex="1" parent="uKUR6yxW0xjmC9NnJQb5-22">
          <mxGeometry y="30" width="201.6" height="156" as="geometry" />
        </mxCell>
        <mxCell id="uKUR6yxW0xjmC9NnJQb5-21" value="Inorder" style="text;html=1;align=center;verticalAlign=middle;whiteSpace=wrap;rounded=0;fillColor=#dae8fc;strokeColor=#6c8ebf;" vertex="1" parent="uKUR6yxW0xjmC9NnJQb5-22">
          <mxGeometry x="7" width="60" height="30" as="geometry" />
        </mxCell>
        <mxCell id="uKUR6yxW0xjmC9NnJQb5-23" value="Python" style="rounded=1;whiteSpace=wrap;html=1;" vertex="1" parent="1">
          <mxGeometry x="126" y="594" width="120" height="60" as="geometry" />
        </mxCell>
        <mxCell id="uKUR6yxW0xjmC9NnJQb5-24" value="實作" style="rounded=1;whiteSpace=wrap;html=1;" vertex="1" parent="1">
          <mxGeometry x="122" y="492" width="537" height="60" as="geometry" />
        </mxCell>
        <mxCell id="uKUR6yxW0xjmC9NnJQb5-25" value="C" style="rounded=1;whiteSpace=wrap;html=1;" vertex="1" parent="1">
          <mxGeometry x="457" y="594" width="120" height="60" as="geometry" />
        </mxCell>
        <mxCell id="uKUR6yxW0xjmC9NnJQb5-27" value="" style="shape=image;verticalLabelPosition=bottom;labelBackgroundColor=default;verticalAlign=top;aspect=fixed;imageAspect=0;image=data:image/png,iVBORw0KGgoAAAANSUhEUgAAAT8AAAEbCAYAAACsm4OLAAAAAXNSR0IArs4c6QAAAARnQU1BAACxjwv8YQUAAAAJcEhZcwAADsMAAA7DAcdvqGQAADXHSURBVHhe7Z0NfBXlmbdvBQEVUORDA7gigagBURCFgBX0bYGuYmmpa6WB2qLri5T+iry7RWsF7K7ituC+WvX1g9ZiSnUpLUrdhagttIWAIihg1GBoLAhqRDSgCIp953rOPMmck5PkBHIiMv/r95ucOfM9k5lr7vt5njNz1AcffPB3E0KImHF0+CmEELFC8hNCxBLJTwgRSyQ/IUQskfyEELFE8hNCxBLJTwgRSyQ/IUQskfyEELFE8hNCxBLJTwgRSyQ/IUQskfyEELFE8hNCxJJme6TVtm3b7Le//a3r6O/evbsbPmjQIPva177mPoUQornIuvwQ3fTp02316tXuu5cen34Y8L2oqKh6vBBCZJOspr1r1qyx4cOHO8kNHjzYfvWrX9ny5ctdh+hee+011884JFlYWOjmOfIot6Lrhth5l8+y5VXhICHEZ0rW5IfMvvnNb7r+733ve052PrVdtGiR3XXXXa7fR3xMwzw/+MEP3GfDFNus3r2td0p33sX/ZJPnLLHyfeFkQgiRhqylvURxRHxEe6nleUSDQNQXBSkiPyJBhFg/yG+yFZ07wgr7dQmH7bO31y+34o2V1v6s6+1nv5tqBS3CUc1A1cp5NvMXC+2Ef1pqM0aEA4UQhyVZifxIXX2q25iKjLFjx7p5mDfj9Df/KzbjRzPC7ja757d/tMenFZi9fK/9/FeZRJBNR+XLK2zJivLwmxDicCYr8qNGF2bPnu0+G4Ofxy+j8bS2/GsLbWTQt7y8NDFICCFSyFrkBwdTc+vnOaSKjyDVbR321hCWEc4oDr9HSTeu3OaND4aNn2flB7ZZ8ZzJ9pUhiXLFISOvtVn/E4kqy+bZhGD4qDtK3NeiyYnpeveeFSwZwmVVf4fI8veV2sKbJ9jFFzDNEPvKvxRZqSuzrLL182+yCRef55Z33sUTktcbpbLEim6+1kaF20jZ5w0PlVjlgXC8ECKJrMiPCgvS14aoq2Ijk3nrZdvbxpK7H98u8f2QqLLlt062e8q62OXT5tptP7jCeu1ebkXfu8ZmrwwnOWW4fefOuTbjynz3dfj/nmtzg+9z77zcEkPqY5sVXTfZltgwu/6WGXb9JZ1t2+JZNv7mhVby0Hftml9VWv9rZ9rcWdfbgFaB4KLr9ewK5F04we5cuc8GfOe2YL0zbOLANrb6jgk2/tbiYA+EEKlkrba3PmjUjPioFPG1vlEYl1mNbxoOVFrxg0W2vEOBFY4pCAceAqvvtYU22R65PxDK2NF2xTW32fx7r7f+QeS2cPGShFja59rwy0ZbQY8T3Czdzx5to4Pvoy/rbw3GvquLrHzwPTb/3ybaFZcV2tT7H7GZY9pb1eIg4nugk8189EGbOi5Y1rip9uAd4XqLoxFqIM+bb7SiLlPtkaXz7bZrrgjWW2jX/2S+PTStwMoX3G73pspSCJEd+RG51ScvmrXccccdrh/5UcMbhXkzTplLH7dZP54VdjfYhC+OsslPdQku/p/ZxLxwmkNitE2eNsLah98c5w63grOCmHDbVhdhHhqBUMdF48P2NmzoMNeXP268je7gehP49W7ZGigwZOMT9kTgwsLx11t+Sq6fP2aEjQi2cN1GlX0KkUpW5NetWzcnsPrK7ajZ9e37aOLiZennybiW+IViK5pfFHZLbOtpE23+0/Nt6rAkXR08A3tZbq1Ftbf2BHlrKw9dfmmW3/64RATZ54z+7rOGcL0RKje+ZOuD+LOmnDHSfSFRxrh+x6ErWogjjazIj7QW7r77bvdZF0R3yI9fevhIz8/jl9Eg4+6xzZs32+ZXNtnS2VdY+9I77bvXz7PSpirob9k6TeVJE1LP8ltn0Eax6sPdwd98u+JHvpwxTTe64ZJHIeJGVuRH1Obb6xHVZQrTHkz7QEeL1pY79jabO6nAbOW9NvsX8Uj1EoLcZq27+3LGNN3Axte6C3Gkk7UKD9rrEc0RyaWr1EjF/7oDpkyZ4j4Phtxvz7Drh5qVPDDb5r0cDnS0s9anBR+vpymnK4uUoR0CmURqTU33vHzrHqS96zasD4cIITIha/JDfP4nasiPn7SlKwOkrI9aX8THPOl+Dtc4cm3iDyZawa4Su/eOeRGp9bE+FKGtXGFPJEmxyornF1mihd6h0b1brvt8/8NmbFwyeJiN7GlWuuDOFNkHUPP9i4VNUCkjxJFH1uQHXoC+9pcHHSBBOoTXq1ev6qe++GkPTXwhZ11vUyf3t6og/Z31C6+/9jbsy4WBGkvszokT7KaHFtqSRfPspvGjbG6L4dYkP8XNz7XhwceS+260exctsaIf32vJv17OAi0K7PpphZYf7Nfsb33Frv3xPFv4+2Dd94Q133+oMj3jQYjaZFV+4KXGQwyo4eU7IvTCo8LDP+qK701F/ylTbWLPKiu5b64VhaFP+0tm2EN3Fdrwdq/ZwjtushvmLLTKvJn20C0F5h+NcEh0L7QZwfIL9q+2O6ffYPcGmWhWK0tC2o+YYf/16Fwr7Gf22pLZdtPUG+zO35Rb66FTbf7ciYHwhRCpNNuTnIUQ4nAi65GfEEIcjkh+QohYIvkJIWKJ5CeEiCWSnxAilkh+QohYIvkJIWKJ5CeEiCWSnxAilkh+QohYIvkJIWKJ5CeEiCWSnxAilkh+QohYIvkJIWKJ5CeEiCWSnxAilkh+QohYIvkJIWKJ5CeEiCWSnxAilkh+QohYIvkJIWKJ5CeEiCWSnxAilkh+QohYIvkJIWKJ5CeEiCWSnxAilkh+QohYctQHH3zw97A/u+yrtJLH7rWip0ps/epyq3QDO1vu2X0s/8qpNvfKfDdECCGag2aRX9XaeXbjD2db8ZZwQCrj7rHNs0aEX4QQIvtkX34vz7MJ35ptJbsSXzv3HG6DL+xvA/q3t6r1pfbShhJbnX+jPS/5CSGakezKr2q5zbriWityEV+ujfjRXJs7Id9au5ERDgRdi0SvEEI0B1mt8Ch95N5QfGYF0+baPenEBxKfEKKZyZ78Diy3J363PtF/2kT7zrWq0BBCHD5kL+1dOdsuvnqebQt6u1873/74rwWJ4YfC+iK75XdllvfVW21Myyftkf9ZYzv2BMNbdbB+X7nWvn52W7N31tlvFj1tG95ghFnb04bamCtHWl4wKkrlxidt8VMv2tb3PnLfWx7X2fK+XGjfOKeD+y6EOLLJWuS3razUiQ/yu/cye3253fsvE2zUkN7Wu3fQDRllEybfaUu27Aunypy9pUV215NbrPPAS23kkDzr8Mku27DwXnt84zoremCxbWlzjo28bKQNzW1re15faUXzV1hY3+LYUXy33b1wjVW26mlDR1xqlw4fZDmtKm3HjoQIhRBHPlmL/Ipn9LbJCxL9V0ybbtt+XlPjm0yuFd7zXzZjRPvwez2EkZ8F0hrz/attgI/myh+3//jl80as13bg1favl/dMDA+GrJz3H7bs9Q42dNJUG5nDsC32+OyH7flWg2zSDZeaG+T4xPZUfWJt27cJvwshjmSa5RceC+cgvs5WMGaiTZ8912Z8f7QVdPeyK7eim2+0Ih8mZkCbfhfViA9yz7YzjqPn1CCS8+KDtnbeWacGn7us8s3EkGr277Xdn4b9jpYSnxAxopl+3kZ0t9Tm/2S6TRw72gonz7X5Sx+y688NR+8qticeLw2/NEzXblHBwbHWBm+d2NV6pvirzbHHhn2ennbBuZ3NPtxgRf9ZZMte3GEfJUlQCBEHmkV+7cdMtqmpaW3r/jbxm6PDL0FGW7ou/Mlbw7Ssa6uPbhn21E/OqEk25bJ86/Bhma1cdJ/dduudVvSHMpc2CyHiQdbk16pljez6nJFv6Ur02p/Ry/qH/Va1z6rC3uzT0jpf8A2bevMtNmXsUMtrv8vKlhfZXQszjz6FEJ9vsia/Xt37hH1m7+9pPq01jkCC54y0wu9PskEnmX300jrbEI4RQhzZZE1+3QcOro7qSleWWLqYattz6y1sBm3te55quWF/dtljtVx8dAc7sV3w2bJNoEMhRBzIXpnf2Zfb5ZeE/S/Ms9n/r9SSWvRVFtu8Xy0Pv3S3Ky5prgcblNnin95i/3H/o7bsL2tszbPP2JMP3mXLXjfrPHCo6XcoQsSD7MkvEFrh96da4ncdVVYyZ7yNuvoGm/XjWTbr5sn2la9Mrv7db/sxN9j1wxL92ed0yz8nx47ZWWori5+0J3+/wl7c3c76XTbFJo2qafUnhDiyyfojraqKZ9n4m4usNG0D5yDaumS6PXTXRMtP+8QDIYTIDtl/nh9UlljR//25LVy5zkq3VZl16G75/frbyDGTbeJluemf9CKEEFmkeeQnhBCHGVks8xNCiMMXyU8IEUskPyFELJH8hBCxRPITQsQSyU8IEUskPyFELJH8hBCxRPITQsQSyU8IEUsOG/mt27Uu7BNCiOzzmcnvye1PJgnvu2snJ32fV/5Q2CeEEE3PZya/F3att3/f9G/ht2QQ4X9v/+/wmxBCND2fmfy+03Oi+0yN8Hbs3eEiwB/2vTkcIoQQTc9n+kgrRAc5x+Y44Q3oMCBpmBD1sr7IbvldmevN++qtVlj9KkBRP+us6JbFZjE/Zs0qP9LZ/h3628Tca8IhTUTxLOs9uSj8UkPhPZttRnO9GqQJ2F4xx372+jJbu3+37bFW1uO4kXZ13/9jI05o5cZXlH7Lxr2RuNjT0uY6W/CFq61H+DWJvWW2pOxuW/LOWtvES9qP6mhDThgXLH+c9U19r3vIzh332+0vPWw5vUts2mnhQE9Vsc3Z8FNbtnd3kD/k2cjc221aj67hyASbNlxlN3w4zn47eLS1DYc1GU58lTZ00lQbqfukY8fSO+2+VZ1tzK2FNiAclp6mkt8OW/af99nKd8OvnpOG2qTvj7TD/d+S1bSXKI60lk+fzs7bMi9LlRkFNv3JzbZ5c6Jb+oMCK5rc22YVh6ObnGKb1bvplr+9bIpdvfk3tnx/O+t34mgbfXwn2/3hEpv57LX2652JaVq17GR5x3St1fU4KjG+a9u89OKzCvv189+y29/eYHtaDbTR7fsG0+20Ve/dbTc8/7CVIcMoH661Rc9eZVdtethWpbs1frrK7l47w0qOHmu3X/BLu6mj2bLN0+yX0bfO77zf7n+rk13XJwviC1i3KbgJnJRv/SS+eln3yC12yyNN35IC0d5yy31WeuYku/XWWyPdGMsLpzncyar8vOyI+GDRhb91n3UJkOn+/aXkShCmG/vnryXVBGdC7jUzbPpgs6KVWbNfE1JhK95eG0R77Wx074ftp+ffZDcOWWS3n4zKyuwXFYm33HXNm2MPD1+U3F00zQrcf7GvXdVriJsuLa1G28wLngoiw7vtxkEP2oKhs2x0MN+evQts2ZvhNAFIePTKKTbn/YpwSBq2L7clB/JsbP51dt4JeTa837dtZLAPayv9PNtt0asLzLpPs7G8ElQ0CzmjpgbyaSjqawKCqPu+VRZE3bfa1Fov/RpghZ+DqA+yKj/K8Fw53kc7GhSgb/qS2gSG6Zh//btNf/c6rHARVkfr2q7GFn3bp4/jomx/7deBiAIxdvp2PaLpYVcNvKk6fXYcO8IK2tOz2/Z/7IY49gfLyjn+64Eof2nfbhMOTOXAvkDUPSznxPD70T2sa2TaPeVz7P4D42zKGQ1vv/i8EaTMvyuzDkO+8bkvbsia/FyqG0jrh31uzliAqfjKj4Oj3LatDpLhU2u/Cr14Rm/rHaSsvquduiZS2ug0vWfUTJSYf7JRykhqnTy+3OaND4eF3YSHysNxddHDCjrlBelhhS3bUmw7AwGRej6wjYivo43OGe6mqsWnm+z324kYG4j6oNZ/eqft9NJrEX4G9DjrbntgyLRkUaZlu+3cHfZ+WmHbPwo+Sb/3FtvdFdvt62dcZ3kHdXZRHhWkapHuzqWR82DHMrszGLZ4c9D/7kq7j2n+c5mlP1Mok0qf9rl0MGm+cNq61gvhuqunSVmvSwUZVj3dnbYsnCCRJtY9b5Ta2xYQLjN1m6JpbWIdRcERDKBMNJjeHafNi8P1huMiJG9XzfbWyfrSIBfJs2FHwGtesya/nwdiox3ffweRXEMCJNX9nzTt+pj3YCmeEchp8HSbcU1UfgkxTd4y3ZaGZYOb7ymsVTZY/lCgtXtqyg83PzndChZMrpbYiFkMv8cKg34qVdw0s6hZYfmjbHbPe5Lmra3f2vQ460F7oEcgsPdm2Og/FNiQIPV8eG8QsfX5tU1JrkeoZk/Fr+w3gcDatr/cRjYyvdzz+l226IOg5+jRNqSO5dfJKRfb2KM32aLSRVb2QYU9v+kXtswG2vDuHa2k9C7b2HGK/XOXcNrG4C7YxVY5JFKONGmo2ar7agSWM9KmBsPH9A76KVhnmkNOs8KC+45jktbbORzrYNvuW2mdvxqOv3WSDbVAvrUkVmqPPmb2DTdNojIGwSQqIiLzdgwnT8OAvnmB2EttQ3TBb1Yab3/d9cqGyPrWWWkgt7y+aRLd/oVuXe449fb7lZwSl/3uFnvUvhGOY9pdtvK+2oKMkihr7fy5SGsbImvyO7dDfyc7GiunEyBy9KSmup71u9aHfZlQYrMvrYm2Ji8osOk/mpgsnuIim706ZfiIGXbPuCCCe2ReoK4EudfMT64lzptohcE0JVsbiuAS0Wbh0MjMwbzJAk7Pntd/ajMrVlnFUXk2ouNoG3ti3+D+WmG/fuUmWxRWeCSzPbhLL0+UE3ZvXKXCnjfvthvLioOld7SxvaaEZYaNoPVwm3LOFMvbe5ddveoqm/luJ/v22bfZ2N0P2N3vDwnS3TOs5MVv2defCiT+1DC7ek0gydRKlVoEAlpBOjUpuRwJ2X01kMHmFQ1HJQfNDqt8N0UiwXoLq7cjsW1IpKZ2NMdGXjnUOgTR5zPR0zRYTv6VyTLeURloq3d+RDzBvOPrEXb//OB/v8tKX4xoLpBOh955wfoqa+QXRmH5B1tjG+xP9FgP+GKwP8ESSxtz2X2OyZr8Lu16qU3sObFOASK8piW5tnfzk8NsBTKMpqsrg4huXKFNTKmOyj21wGz1tmr5JUhOXycvCAZt2ZoyTSq51p1KlskTbF49LVJqsW+J/bRsSXDaDbRpg35pMwfcZNPOf9B+1nu4dT2w1ua8siBQXQrvFdvyD4PPlqPt4m6JQZmwvfxG++7GBfZ8IL7hp821aacdXI1Eq07jbObwFbbqSyW2ZPgcu6rL6/ZA2TI7u+cUy/nrDTbt7eC+EkStC/p83dpVBWLfuDacsw52bLDSdztY/jlplJBGBk1LjnU+iUiojrQv3LahX0yJsHI6u+iw8q3oTMGwlF3I6dzBpZ610ug6GWD5QcS2q9JPT4QXHJsv5gdLr5HTjrcqDykKqxUxpt2fI5esyQ+50Z4vVYDN1ng5iLjmBymtLSgKRVRuW7cEH0H66oXmu1F3lDBBNYkyvVG2YtjSapkSHTZMrk18hGlrotCGy/sCKjfaKj7bjUhKX9v2GBkoPeDDEishRY1QtnVZILBgNztebH0Tgxpgv5W99C27esvy4PIJ0un8X9tteU3XKKHs5Z/Yb9pMsSk9dtiKyjLr2vk6++euPaxH1yl2ded2VvFuiW0Kp01LmNZ9NgSR2Pd92pco/0oSldu2mnE13eLgWKaQRkauFjaIXneRvjNfPeV9Hpf6bi4Ny++CCM8160lIsWwTQ3fYhld2WYcz+x20/A4GJ/Jo9Pk5JivyQ3yU49FEJSpAyveaPuKrhx7dE/Jw5NqpPYOPcZHyuKRuhrlktXhWImUOosj5GaSr6UiUCQZdIN+SO0YlRZ9pcbWn9VFl+z8Jex0V9vx7NCtpZ+d1ykx928um2Xe3l9meFsNt5qBf25RuBxfxpWX3Ins4uBq+fSbp93Z7Z39wkbSqKUjs2Cq4PD95x94Jv6fllM5BytXUBBFdPWVrqQwYH5bJeVH5cka3bUHkNykcn9LVbu6RhrAMzrWDcxU19ZetJdaZiPJcyhtKzklxZyCf+iLlLJJzTv4RkxpnRX6ktjltcpzwvAAZlil+2mg54CkHEzFWbLNoTOfS2wUl1oCK0lBsJaS9jWXEDNfYusF0uVM/c/W5u4ttWZUb4thTsSyx/S36Wd4JblCC95fbKmpXg7kGZlJZ8ekqW7SVWuE8u+6c222Ea+LSVOy24pd+artzfmhXuaYvnaxdy2DoJzU637k/MGOb04N4sx5cylVHauvKtg7hQkcWYW+CREVBnQSimjQkULGfr75tazQDrHASZWuVVp3VpiOnn+UHqXjlW8sSKa/fd6RIZciLQTT6WTTyzhlpw4g+f9eAvD8HZEV+pLY/G3hPkgAzbaRMWSGkTu+HZ0zZPJvAT94iZXy51xRaoRXZ5PE1lRuOINqrru110WKJrfhTzRSu5jjsryEs30tqRF1ss5KivHJbviLQV89TaypY0nH8WLu6G01d1tqcZ8faTc/dZnPWfMuu2rw8iKM62tjcf7bzwklhzzsbXcpr7c62s92QZCpevdZGP1VgV6+jQiTgzWB/XIVDhS3bGKxreUr3gku6D4o9FbfZAx+Ns+vO8il0XxvSsYeVvfUTe2B7hVVsv9sertxtw08eUb/8kEIYcdVq2nII7cpcpBREWo9GlrnukdR0dZ0VJTWHSaSU1tGnsAPsfwUyZNuKkiKeHbbskYZT2HWPJItix4ulgUprlw0mk2P9zgzW+UqpVUYl56QYiPiVyoxS3kR5Y5g+NxEDxk+yoSeV2eJ0TWP4f2WQ1h8OZK3ML1WAmXJKm1PcZ7SNX2biS67t7X3pbMulGYprguIZYTM2L7XpNttG+enoHuluhX6ysKzQpavh+JKh6cr8cm3ieMoUwzJEL72kMsWw2UvSNqQnL/9Be6DX1234Mbtt7XtLbFFVhbU7boRN6/vLWpUSr+7e6D7zjjs9s1rej6vCCpP9VvHxdiur1QV56sGwb7ndv2WjDcubYn0jZ1LfvnNs5on7g4jwKhtXusxad5ljN+VlEKKSGvqmLb5cLWxeklFqmY4wiqsubwu60r5hE5Ao1W3h6MJmL+Mj9bNhuR3NQ6LTVfbNpJkNoqiZL7Pf3wbrJMV8N5BwkuRCKQbDO5/c8JpzRg0L4n2//qaK1hJlpLd+tXPtctDg/5W8vYcvWX+wARKjaUsmAiTdRZjAPER/yJPHWzUmbRZCiIbIWuTniUaA9cF4Lz5+9eHTXolPCJENmu2RVkSANHWhxjcK0vvHrv9Y/ZgrpMcvQxjW/6TEb4OFEKKp+UweZup/9wupckN+Ep4QItt8pk9yFkKIz4qsl/kJIcThiOQnhIglkp8QIpZIfkKIWCL5CSFiieQnhIglkp8QIpZIfkKIWCL5CSFiieQnhIglkp8QIpZIfkKIWCL5CSFiieQnhIglRx9zzDFhrxBCxAcnv1atWoVfhRAiHhz19wB6Pv30U/vkk09cJ4QQRzrV8vMgwQMHDrhPupTRQghxRFBLfkIIEQdU2yuEiCWSnxAilkh+QohYIvkJIWKJ5CeEiCWSnxAilkh+QohYIvkJIWKJ5CeEiCWSnxAilkh+QohYIvkJIWKJ5CeEiCWSnxAilkh+QohYIvkJIWKJ5CeEiCWSnxAilkh+QohYIvkJIWKJ5CeEiCWSnxAilkh+QohYIvkJIWKJ5CeEiCWSnxAilkh+QohYIvkJIWKJ5CeEiCWSnxAilkh+QohYIvkJIWKJ5CeEiCWSnxAilkh+QohYIvkJIWKJ5CeEiCWSnxAilkh+QohYIvkJIWKJ5CeEiCXNJr/FixfbW2+95fqfeuop1wHDGLdnzx73XQghmoNmkR+CQ25efh988IHrwI/z34UQojk46u8BYX9W2LJli23YsMEJrm3btnb88cc74fl+pMe4k08+2XJzc61nz57hnEIIkT2yKj/Et2rVKie6hvBp75e+9CUnwob48MMP7U9/+pO98847dv7559sZZ5wRjqkbtue5556zE044wS666CI77rjjwjFCiLiRFfn5NJaIjyivsLAwHFM3zEPZH+Lr16+fiwrrk2ZUft26dbOhQ4daq1atwrG12b9/v61cudLeeOMN69Spk+QnRMzJSpnf008/7So0fHrrQXBEX9HOlwP66fjOvCwjE5Dle++9Z2+//XY4JD2Mr6qqclGfEEJkRX5EbnRR8SE6IjvS4GjnJelhHuYtKCgIh9RP69at3Tzbtm2zTz/9NByaDMMZ3759ezvppJPCoUKIONNiZkDY32R06NDBRWRbt261jz/+2M4880zbtWuX++7FSOUG0kJ8p5xyipuHNJnPIUOGJIkzHSz39ddft3bt2rl5/va3v1nHjh3TzkfU9/LLL7vKFObbu3evnXbaaXbMMceEU5h98skntnnzZnv22WdtzZo1rp9I8cQTT0xKp0tLS520kej27dutpKTEzcN+IFdfocMwuldffdX27dvnUu0WLVqES6nhzTfftLVr19rzzz9v69ats7/+9a8upWe90e1j2DPPPGPvvvuu21/KLtkO9oX17N6926X/qSD94uJit262QQiRICuRH0KItuuLghR9l05UlBUyL8vIFC76li1buvK8dDC8TZs27uJHFqkQGb7wwgu2adMmNw3lh8gZaSIYxJLKa6+95mSO2PPz811Kj5CIcBEZ8qIipnPnzvbSSy+5ZUdhnQxbsWKFk2OfPn2c9Lt06eKW/ec//zntepnvxRdfdOtB5Mcee6zbZqSYrrkQ+4CQc3JywiFCCMiK/LjYDhZf6+s/MwHRIBlkS7QWhe8+uiRKTAeyIYq78MIL7YILLrDTTz/dzj33XBs8eLCTJVFgFKSEeJi+V69eNmDAADvnnHPccASIEBlGpMnyunbt6rYhKiciPqJCJEsNN/MwPek+HdMizdRUngiaYZdffrmrSOrbt68T5vvvv287d+4Mp0rAMpAfETFRqRCihqyV+Y0ZM8ZFd6kggdTKjijMw7wIIVOOPvpoJ6yPPvrIduzYEQ5NQNpHSkuae9RRR4VDa6AWmMgQOaZuL6kt4kCgTBfl1FNPTUqHib6QKxKOpp8+4iS681En8iJNp7Y5Ly/PbX8U5idSI5pLvQmwL2eddVaSzJiW7wg1CuJDgMhXCJFMVuSH1Ci/i0Y6PhpkuK/sKC8vd8OikSLzMA1ybAxICskQwXlRUU6G2BAS0WE6WB9dWVmZFRUVJXWPPvqoVVRUOKkiHQ+SS40iSbuRGPtCJUwUxkVBhESJLCNdcxuWw/ay/anyQ3Kp66b4gHLAaOqLYPk/IHAiQyFEMlmRHzW4CCx64RJVEc1RrhXtUhs1Mw/z0jUGBNO9e3cnAB/9cfETtTE8NbryHDhwwHW9e/d2aWy6jtQytQ1huigS6hoehaaVrJNlporRgxRTpQuU8UUrQoB9Yx8RH9EecBw5FtwQ6mv/KERcyYr8fNrqpeYlyHfKtaJdummYl2U0FlJX2vGRUiIOUt6GIh9kRYdAevTokbZDLHVJ6mBhnUSoqXLzEB0iwEzF5cv1ED5RH42/EWy6GmAhRJbkRxqGxCj7Q2rU3qamlKkd0wAVAF6IjYWoiLI4LnzSZiIfyvrqEwiCYT7SUITTHLA9pMesk9Q2FeRF5QXblS4tTgfTIn8qRKj8IP0n6qsr3Rci7mRFfh4ucFJbLzMvRQ/9vrkLn0xLNHgoUPhPJQPt8RAHQqgPpIEkKisrq8sgoxA9IpSmhCgSSfuyRmQXhXJKUne2vTG1tES4RJNEvvzqhfnrSveFiDtZvTIQGjIjAgT6SWkZTke/lx3NOw5VfIAskCppLxd/JpETzVVIGzdu3Oh+L0zTF6REo2IaHpM+NjXIjxpqhEsZ6SuvvOKi1dWrV7tGy2wPbf8aA/OQ5lNJQ6XLwUbQQsSBZgkLfG2uvxj5jPYjwmiN76FCORfRXKblXdSe8qADmp0Q5SEgRMivIminx7KaGiIy2gIOGjTIrcfXgpOqU8FCFNzYigoiSoRPOo0IM02ZhYgjWX+en2heaDhNyh8tbhBC1EYFQkcQlPdR0UHqSyeEqBvJ7wgC8ZE2U56Y2hZQCJGM0t7POTSVodKEdoN8EvHxm2TJT4j6UeR3BEDER1kflR08SUbiE6JhFPkJIWKJIj8hRCyR/IQQsUTyE0LEEslPCBFLJD8hRCyR/IQQsUTyE0LEEslPCBFLJD8hRCyR/IQQsUTyE0LEEslPCBFLJD8hRCyR/IQQsUTyE0LEEslPCBFLJD8hRCyR/IQQsUTyE0LEEslPCBFLJD8hRCyR/IQQsUTyE0LEEslPCBFLJD8hRCw56u8BYX+z8Pbbb9umTZts9+7dNnToUOvUqVM4Jj3vvfeelZWV2Y4dO9w8rVq1cvPk5ubaP/zDP9hRRx0VTpkZn3zyif3tb3+z119/3S37gw8+cMs84YQT7NRTT7VevXq57w2xc+dO27x5s7311ltuu6Bdu3bWuXNnO/vss12/EOLwpVnkh3C2b9/uZIHEADk0JL+Kigpbv369E1QqxxxzjBNV//797eijMwtgEdULL7xglZWV4ZDanHLKKTZo0KA65fXxxx/bhg0b7LXXXnP9qWSyX0KIz56sym/fvn323HPPOfHt378/HJqgIUkQIZaUlFRHe0RlXbp0sXfeecdFbSwPAfbr18/OOuuscK76KS0ttXXr1rn5WC/RHuzZs8eJ0csMqV5wwQW1pPrpp5+6+V955RX3/dhjj3WRnt8HIkk65s1EfuwHN4PWrVtbfn6++6wP9vnll1+2vXv3Wk5Ojp122mnhGHPbxLqjsP0nnniii5DbtGkTDhVCQIuZAWF/k8PFSrSHwBBO165dDdcynAudi/K4444Lp66BSJEIDQEyH2nkgAED7KSTTrLu3bvb8ccf78axHISECJiuIYj4SJMvvPBCJxu2h65Hjx5uOxjPulkmokVuURAMHeOZ76KLLrK8vDwnQDoE3bt3bzdfJun4+++/78R74MABJ6e2bduGY9LD9iF/4OaB2DwM53ggdPaFbWA7Ofa7du2yDh06WMuWLcOphRBZr/AgajvzzDNtxIgRdv755zcY3QDlaf4iR0JEYlG6devmZAPvvvtu9bQN4YWFCFJhmcgVSLNTU+2qqiqXhhMdsm72pa7UuDHlkC1atHDiZh+QYF0wjmmYvq40n3Gnn366EzLdueee624MROCZHiMh4kJW5UcEcskll9jAgQOdcDKVApGKl0/Hjh1rVUD4tBWQUaYXNpFSXdEPQkEewDKJmqKQniJlIFKsS3wHA5Hshx9+WF1xkg7GMU1jjiMwPftVn1iFiCNZj/wOBqIsjy+XSyUqH6RAunooIDsvCJYdTXlZtq8kQaBEo02JFxSCTVcEyzDGIf26jkddcGzYNwQrhKjhsJMfURcF+oCE0pUJAsO9AJHWodbbvPnmmy6FBpbbvn171w+UpflIlLSdSLS8vNyWLl1qjz32mOvof/XVVw9KwpT3sT7K/9LVbDOMcb6ML5MoDuEREVPZhFx9Si+ESHDYyQ+JRUWWSYqHnA4l8iPNpiLjo48+ctEVlSrRskmiJ8YBafPGjRtdTTRyQdY+9aZme9WqVW57GgP7SDki+52uGY6vqPHlnHXBdtA0aPXq1fbss886QSNMykwzbQ4kRFw47K4IJOZFkymHEvlRjocsvHQoz+vZs6frT8cbb7zh2vhR5kgzm8GDB7taa18uSQPql156yfU3BtJZIk6aq1BB4eFYIGfGN1Qb7Ju2EOXRER1TK067RB9NCyESHJbhQGMK9AHx+MqKxoCo/vKXvyRVZNBouqEmIciOihzkR1RFDfJ5551X3dyGFDpabpkJPrIjakR2HiJKbggNRX2QWttLEyFq2okIt2zZokoPISIcdvJDII1tkMtF35i0jvIwfmJHxOfbICIJorjUmuVUqDg444wzak1HquwF5cvoGgvRHRUtRKEID2lRDhkt32wsRIJ0RH6K/oSo4bCTHxGQj+JI+epKgaNNQ5Clj7oaAvFRLkZqSpSFzIja6OqK+NgmH40ip3QioozQ16iyzQdTBsk+kK6yb6S/NIJGWKTYBxPZehA1xQLsuxAiwWEnPwTka3iJfOpKH6ORVaZRERc/P0/jJ2Ism4hoyJAhLnWtL9VGeL4ChGUcSuVKQxA9IivK6ugQ+6HW1CJ59k+VHkLUcFheDUQ6PpKjPC5VNnz35XREWzSEzoRt27a539MCkuG3xSeffLL7Xh8IyLevI9r0645CtOZFjYzraqLTEEgWKbMelpeukXdj8L83RuDRtotCxJ3DVn4+2uGBA0grCt8ZDkwblR8R4fLly23RokXVDyAAhIn4SCORGWV8tH/LBCImyvSYj4iR3yuTknpIKf/6179WtxNk2xHYwYKYWadPgzOFCg22g0eA0dEkh2PAsvjd8aGkzkIcaWT1wQapIA4ERJREhFPXgw246EnTqDUlZeMTqdHPRc3TWWgOQjR2zjnnJKW9XOzICdmxHkRCxIOsGE55nC/bQ6A0Ak7XMW9UPDQzoSKDqI9PfnFBRMW2sU7/u18iUbYp2ki6LtgmloXAo+0K2X+iPrabR2xFYbuoDWafo4KlVhixs3++cgMZIngetuDLI4UQCZr1YaZcuH/605/chcrFW98jrShbo1IC0SGVVLiYedJL9LFOQJs2OkAOrAMBsM6VK1dWV5I0BE1FeDRVFORL42FElw62iaYyNJkRQhzeHLYl4KRqtFMbNmyYSzl9eRXSREwXX3xxLfEBDZT99FRkZJraZgJlb8iUR2IRkfmyONbBMwW/9KUvSXxCfE5o9sfYCyHE4YDaPgghYonkJ4SIJZKfECKWSH5CiFgi+QkhYonkJ4SIJZKfECKWSH5CiFgi+QkhYonkJ4SIJZKfECKWSH5CiFgi+QkhYonkJ4SIJXqklWhSeII2L4jiCdU83JXnHDb0HmSRwL92gVcsiOyTNfnxQnCe2pwKL/jm8fWfB9iH8vJy924OHgvPY/PZ9vz8/OoXLEXhkfZc+Lx3l6c+85BTXomZ+ij6KNF5eMcGL1Tq27dvrXeAZDIdT8p+8cUXbevWre6x+Dz0lXcMR9/axsvLeZVAQUGBeydJU+LFx7HRBZyA1xG8+uqr7iG3/r3OddFU8uP/y2sWonDOcC5k8nqFuJC1d3jwfgqkcckll7iXgffr189FALwonAvWvw2tKeHif+aZZ9wTlpti+Zy0vDsEebE89umNN95w78no1q1b0usuueife+45tw08mh85Ef1wwte1LZyka9ascevo0qWLOz68rpLjxnf/Xo9MpkM8a9eudevkeBN1sU080do/zZpH+PNSI6KxpnzCtYft470oXbt21TtDQnjXDO994Zz3xwQh8tJ83gsTfXcLr1qAul7t0BAsl1c48O4W3iPDjZqnmtNxXqauL+40a5kfL9LhLWJEMZ8HeB/HqFGj3Ls8eL/vF77wBfcYfSQYfZm6f4kRJ/jIkSOrhX/ZZZe5Ey8dRJK8jAkGDRpkw4cPtxEjRrhH9/OCIl62BJlO52823N0RYm5urnurHZGi57XXXnMvZaovEhVNC5HW+eef32DUd6ggWc4F/vecG6lFDVx7ivqSUYVHPaSmtrxpjqgyGvHxoiVeaMTdlnQ4GuXV96JwIjTuxggqJycnHGpOlgiWaAHxZTodpRec8P5teGy7f+8JIGjkSCpc1zaJzy+8spRzk4xEZEZW014uuOjrKbk7UYbGXTD1Tshb0f74xz9Wv30tNTX2KS1ps5/Gp5/A/H/5y1/cdKSJ0fG8/Y1xdH5eRNGYuzHLJbpjn7iLktoBqSTpMftIWU26ssB0sDzK5ih3i75TF4lS1six8rJrzHSkTNzh2Wd/QbCfL7zwgnvh08FEfaTUvEmP5fHOZDpS3Gh6xrFh/UiYiJRpSLHSpb/8fzgPEHo0QiFK5W19SN2nZwwjVffrJa2Ozsf+U87JsahvPP8Xto/o12976rz1bXO6bfPHhSII1ulvKkzL8WAY/2fON/4PzMf0vBqVmybTsU7+l5zvPu1lWuZhe6Pj64L9oDiGc53tE5nRrPJbv369+zz33HOrL2IvJk6kL3/5yy7V5B9NZUlUgIT0/HNJPSk/RD6cjJxEXNyM421tnFADBw5003nxrVq1ykVBLN/PywnDyVkfUWlSfsa62HbW46M/LnSk4E9O1oWIucCZnnVEI0UP+8tFwIVIKupPWoYxLxcSsuNCyGQ6jhMXIdtDP+O5eBAyhd9UwBCZNjbq8+VTHD/2nYiT483FRtTpL3ovXaJL3qBH+l1XuR/nBlLw5ZcehvEuZJaFKPhfElVTRkkaz7q5obEe5mPbOAfYHip/GM8wto3tYhrEwXHh+FEOy3Z58bFf9Pt5vdTSbTfLYnvYV/+/5vzg2PLJMffzc9z5v3GjYT2+zI//HdvA9rOf/G/YL7885MdwjgOpK9cOy0TOfNZ1PPmf07Fsvw2iYbKa/xAVLV261IqKilzHidKnT5+k6Mi//Ds6nH866RlS4cQCLlyGezhpiXg4qeuD+UkLoxEP87L8hkBaXFhcMMzPuhC4L2cDpMLJygnOxYSgkBHr5O7ta/BS4QJAzqS1yPUPf/iD66i0iAoq0+k4drzHGIqLi100SqE3ESPRA9Eq0dbjjz9ujz32mK1YsaLBYwdIlIs2WgPJBcbyEBEXXbbguLL9/uYJiNVf4Gwb4zk+ntNPP919cuONwnT8Lz1ICaIVP4yPThPFywe5cuMC+rmJc+z98vjkf9XQjbUuWBbnpr8psH2sl/NLNC1ZlR8XDRUGhYWFruOdt7w4nMjIw0mKxBBSFGqmEIiXH9DPRetlSkVA6jSpcDIRtSAtn1ZkCicg0qXA+otf/KLrWBapC+lVFERE8xEqRnjXMJUkXBhEIWxjOog4aArDMrmQiVJYF1EE8/roONPpON6s+8orr3SVLdwskCCRLiIhemV/eOcx4kLO/kJOR30XMkJCKNm8KFkH6ydVTcVvGzclLwrgWBB1pR5zjl0UL1BuZF5cDcFx4GbH8Qf2HTlFj4Nf1sFGYIguOi/7xjnMOV7f/0o0nqzKLxUER1pLtIeIfFSGxLzQfLdu3bpwrgQIk4iFO7OXaSbRGycOQkCwPgolVToYiOpI1bjo/MmO9FgH+xYVONMhcKTD9OlgXlK60aNHu/3hpeekQIiJC4CLqjHTpeLLBEmtuMmwfURGbBsRlE+x6oJ5Sd0/K/hfI2syCMp6n3/++Wq5+G0jmmWc73xzn1Si0SNw3IiMESU3RuYlra0PonAg4mP9HH/khxRZJ8OIhFlm6vqyiZelPzYiM5pVfsBJwckBPipDYl5o0Y6okem5iBEm37kYDgYiMZZJI2vEGo0+G0M0ygDu1HTRiCBKNDLLBG4KXOxcUKnRSpSGpuOmQoNmJMf6uVA57n77uWC4+bDddcE00dS6qWiMGBAOUS7luGw/0Sry8duG2GlWlNpl0lCYY0HZGtNzc0SklKPWhY8qufH5lJd9YRvpR4AM53vqeZJN2IZsR+FHIs0uPyKN6AVHdEQheX0RSDqYnvkaC6kgZWMNpcucxKmpLesj7UR2PhUk1SQiREaM8/hCdsazj+lASNEf2BA1kIZxIkfLNzOdLgrjWS8F+f6iRc4+kiNKQCD1CTZ6safC8We7/HFoLGxHaqRS38WLTLhJIjzmq2/bDgZqwomm6yqiALYBsXHeECV6ybEtdGwLxzgbDcjrg20g/SeSbyh6FTU0q/wQBClGtIyPn/0Av46Iyohojw58pIBQPFQusLwoPpKMFnZzkRItePyJy3RMXxcIml9VUHnAtlH7TFMcaioRji8Y58Sj9pcLkekpk6RCgsiSC4KKAdaDCJ9++mn7/e9/X33BEpk98cQTroaYeZ566im3fC7yaAqd6XQejhPipqIGWdBRE0j0THTDeJbJMEReF+wbUiDCjFbcIB/kitjrqiCoD6TBNhFl+XIs/idcvFGoqOEm5KEfaSLt6AWfGq2xbw2lgCyL5XuYnsitvpsBIDbODTovObaFfWKZnAcNRbZsPzRlZRH/h7qiV44xRT3RYykOk9/2IiQubJoIeKgxpfLACyp1eSwHyXGnrms65EBlAd+jomQ4aXB9sE2cMFwgvhyHCA/RIYTU5itMg2R9tIhYaFbjLxDkR7kS0RIVI0RMbCvrQGS+ZpmyvWjNNGQ6HbDdrIf1s58epEGFB+Wr9BMRUv7KfjUEYuBmE705caFxHKJwcWX6O1Y/rS8qIOrimNC0BWkjEy5ihO3hZuLHeVKXA9Ft89sevWFBQ/PVBSLhOAL/A8QHfnncEKIpd13HJLpvfr3+BpOasjOcYx9dX12k+18BN7lM5o8TeqqLECKWNHuZnxBCHA5IfkKIWCL5CSFiieQnhIglkp8QIpZIfkKIWCL5CSFiieQnhIghZv8fxxSNy2/s0GYAAAAASUVORK5CYII=;" vertex="1" parent="1">
          <mxGeometry x="443" y="737" width="190.5" height="169" as="geometry" />
        </mxCell>
        <mxCell id="uKUR6yxW0xjmC9NnJQb5-29" value="InOrder" style="text;html=1;align=center;verticalAlign=middle;whiteSpace=wrap;rounded=0;fillColor=#dae8fc;strokeColor=#6c8ebf;" vertex="1" parent="1">
          <mxGeometry x="431" y="707" width="60" height="30" as="geometry" />
        </mxCell>
      </root>
    </mxGraphModel>
  </diagram>
</mxfile>
